<svg width="434" height="470" viewBox="0 0 434 470" fill="none" xmlns="http://www.w3.org/2000/svg">
<path d="M354.06 227.85L433.97 62.54L336.74 117.51V7.82H233.05L233.47 0L213.64 7.82H0.640015V308.13H0.550049L27.73 335.4L27.8 331.96V335.42H331.03V264.96L354.07 227.85H354.06ZM328.86 214L307.67 248.14L153.83 230.49L109.42 276.86L128.67 300.56H35.5V108.9L200.53 43.84C198.52 53.38 196.4 57.3 195.56 58.57L174 66.25L281.88 161.52H317.24L368.14 132.74L328.86 213.99V214ZM301.86 132.81H292.74L221.92 70.27C225.63 63.04 227.71 54.59 229.09 47.5C229.41 45.87 229.69 44.26 229.95 42.69H301.86V132.81ZM125.18 42.68L35.5 78.03V42.68H125.18ZM165.67 300.55L147.69 278.42L164.72 260.64L296.16 275.72V300.55H165.67Z" fill="#F2F2F2"/>
<path d="M174.07 142.86C174.07 155.69 184.77 166.09 197.97 166.09C203.35 166.09 208.29 164.34 212.29 161.43L177.83 130.39C175.46 134 174.07 138.27 174.07 142.86Z" fill="#F2F2F2"/>
<path d="M160.58 369.75C155.56 367.34 150.1 366.14 144.18 366.14H103.76V469.7H121.7V423.79H144.18C148.29 423.79 151.76 425.17 154.6 427.93C157.44 430.69 158.86 433.88 158.86 437.49V469.7H176.8V437.64C176.8 433.43 175.59 429.46 173.17 425.75C170.75 422.04 167.13 419.03 162.3 416.72C167.25 414.41 170.91 411.45 173.27 407.84C175.63 404.23 176.8 400.37 176.8 396.25V393.54C176.8 388.42 175.35 383.78 172.45 379.62C169.55 375.46 165.59 372.17 160.58 369.76V369.75ZM158.85 396.69C158.85 400.3 157.43 403.39 154.59 405.95C151.75 408.51 148.27 409.79 144.17 409.79H121.69V380.74H144.17C148.28 380.74 151.75 382.05 154.59 384.65C157.43 387.26 158.85 390.37 158.85 393.98V396.69Z" fill="#F2F2F2"/>
<path d="M243.22 413.4C238.33 410.89 232.86 409.64 226.82 409.64H219.03C214.92 409.64 211.48 408.31 208.7 405.65C205.92 402.99 204.53 399.76 204.53 395.94C204.53 391.42 205.74 387.74 208.15 384.88C210.57 382.02 214.19 380.59 219.03 380.59H248.94V365.99H219.03C212.99 365.99 207.49 367.27 202.54 369.83C197.58 372.39 193.69 375.8 190.85 380.07C188.01 384.34 186.59 388.93 186.59 393.84V395.95C186.59 400.87 187.98 405.46 190.76 409.72C193.54 413.99 197.4 417.4 202.36 419.96C207.31 422.52 212.87 423.8 219.04 423.8H226.83C230.94 423.8 234.38 425.13 237.16 427.79C239.94 430.45 241.33 433.64 241.33 437.35V441.72C241.33 445.33 239.94 448.47 237.16 451.13C234.38 453.79 230.94 455.12 226.83 455.12H186.77V469.72H226.83C232.87 469.72 238.37 468.44 243.32 465.88C248.27 463.32 252.14 459.89 254.92 455.57C257.7 451.26 259.09 446.64 259.09 441.72V437.35C259.09 432.33 257.67 427.72 254.83 423.5C251.99 419.29 248.12 415.92 243.23 413.42L243.22 413.4Z" fill="#F2F2F2"/>
<path d="M290.96 384.5C293.74 381.89 297.12 380.59 301.11 380.59H331.02V365.99H301.11C295.07 365.99 289.6 367.25 284.71 369.75C279.82 372.26 275.95 375.65 273.11 379.91C270.27 384.18 268.85 388.82 268.85 393.83V441.85C268.85 446.87 270.27 451.51 273.11 455.77C275.95 460.04 279.82 463.42 284.71 465.93C289.6 468.44 295.07 469.69 301.11 469.69H331.02V454.94H301.11C298.45 454.94 296.03 454.36 293.86 453.21C291.68 452.06 289.96 450.45 288.69 448.39C287.42 446.33 286.79 444.15 286.79 441.84V393.82C286.79 390.21 288.18 387.1 290.96 384.49V384.5Z" fill="#F2F2F2"/>
<path d="M76.0299 365.84V442.92L52.2899 408.74H42.1399L18.5798 442.88V365.84H0.629883V384.23L9.35986 379.3L0.629883 397.34V469.55H19.4799L47.3599 425.51L76.0299 469.55H93.9799V365.84H76.0299Z" fill="#F2F2F2"/>
</svg>
