<svg width="973" height="307" viewBox="0 0 973 307" fill="none" xmlns="http://www.w3.org/2000/svg">
<path d="M470.98 11.9C456.21 4.81002 440.11 1.26001 422.68 1.26001H303.66V306.2H356.5V171.02H422.68C434.77 171.02 445.01 175.08 453.37 183.21C461.73 191.34 465.91 200.72 465.91 211.35V306.2H518.75V211.79C518.75 199.38 515.19 187.71 508.07 176.77C500.95 165.84 490.27 156.98 476.05 150.18C490.63 143.39 501.4 134.67 508.34 124.03C515.28 113.39 518.75 102.02 518.75 89.9V81.92C518.75 66.85 514.48 53.19 505.94 40.92C497.4 28.66 485.74 18.98 470.98 11.89V11.9ZM465.91 91.24C465.91 101.88 461.72 110.96 453.37 118.5C445 126.03 434.77 129.8 422.68 129.8H356.5V44.26H422.68C434.77 44.26 445.01 48.1 453.37 55.78C461.73 63.47 465.91 72.62 465.91 83.26V91.24Z" fill="#F2F2F2"/>
<path d="M714.33 140.44C699.92 133.06 683.82 129.36 666.03 129.36H643.08C630.98 129.36 620.84 125.45 612.66 117.61C604.47 109.78 600.38 100.25 600.38 89.0201C600.38 75.7201 603.93 64.8601 611.05 56.4401C618.16 48.0201 628.84 43.8101 643.07 43.8101H731.14V0.820068H643.07C625.27 0.820068 609.09 4.59006 594.5 12.1201C579.91 19.6501 568.43 29.7001 560.07 42.2601C551.71 54.8201 547.53 68.3401 547.53 82.8201V89.0301C547.53 103.51 551.62 117.03 559.81 129.59C567.99 142.15 579.37 152.19 593.97 159.73C608.56 167.26 624.93 171.03 643.07 171.03H666.02C678.11 171.03 688.25 174.95 696.44 182.78C704.62 190.61 708.72 200 708.72 210.92V223.77C708.72 234.41 704.63 243.65 696.44 251.47C688.25 259.3 678.11 263.22 666.02 263.22H548.07V306.21H666.02C683.81 306.21 700 302.44 714.59 294.91C729.18 287.38 740.56 277.26 748.75 264.55C756.93 251.85 761.03 238.25 761.03 223.77V210.92C761.03 196.15 756.84 182.55 748.49 170.14C740.12 157.73 728.74 147.83 714.33 140.44Z" fill="#F2F2F2"/>
<path d="M854.93 55.3401C863.11 47.6601 873.08 43.8201 884.82 43.8201H972.89V0.830078H884.82C867.02 0.830078 850.93 4.53003 836.52 11.91C822.11 19.3 810.72 29.2701 802.36 41.8301C793.99 54.3901 789.82 68.0601 789.82 82.8301V224.22C789.82 239 794 252.66 802.36 265.22C810.72 277.78 822.11 287.76 836.52 295.14C850.93 302.53 867.03 306.22 884.82 306.22H972.89V262.78H884.82C876.99 262.78 869.88 261.08 863.47 257.68C857.06 254.29 851.99 249.56 848.26 243.5C844.52 237.45 842.66 231.02 842.66 224.22V82.8301C842.66 72.1901 846.75 63.04 854.94 55.35L854.93 55.3401Z" fill="#F2F2F2"/>
<path d="M222.03 0.380005V227.37L152.11 126.7H122.22L52.84 227.25V0.380005H0V54.54L25.69 40.01L0 93.14V305.76H55.51L137.59 176.09L222.03 305.76H274.87V0.380005H222.03Z" fill="#F2F2F2"/>
</svg>
