<svg width="1474" height="335" viewBox="0 0 1474 335" fill="none" xmlns="http://www.w3.org/2000/svg">
<path d="M931.38 13.1599C915.42 5.49992 898.03 1.66992 879.2 1.66992H750.62V331.11H807.7V185.06H879.2C892.26 185.06 903.32 189.45 912.36 198.23C921.39 207.01 925.91 217.14 925.91 228.64V331.11H983V229.12C983 215.71 979.15 203.11 971.47 191.29C963.78 179.48 952.24 169.91 936.87 162.56C952.63 155.22 964.26 145.8 971.75 134.31C979.25 122.82 982.99 110.53 982.99 97.4399V88.8199C982.99 72.5399 978.38 57.7799 969.15 44.5299C959.92 31.2899 947.33 20.8299 931.38 13.1699V13.1599ZM925.9 98.8699C925.9 110.36 921.38 120.18 912.35 128.32C903.31 136.46 892.26 140.53 879.19 140.53H807.69V48.1099H879.19C892.25 48.1099 903.31 52.2599 912.35 60.5599C921.38 68.8599 925.9 78.7599 925.9 90.2499V98.8699Z" fill="#F2F2F2"/>
<path d="M1194.28 152.02C1178.71 144.04 1161.31 140.05 1142.1 140.05H1117.31C1104.24 140.05 1093.28 135.82 1084.44 127.36C1075.59 118.91 1071.18 108.61 1071.18 96.4699C1071.18 82.0999 1075.02 70.3699 1082.71 61.2699C1090.4 52.1699 1101.93 47.6199 1117.31 47.6199H1212.45V1.18994H1117.31C1098.08 1.18994 1080.6 5.25994 1064.84 13.3999C1049.07 21.5399 1036.68 32.3999 1027.65 45.9599C1018.61 59.5299 1014.1 74.1399 1014.1 89.7699V96.4699C1014.1 112.11 1018.51 126.72 1027.36 140.28C1036.2 153.85 1048.5 164.7 1064.26 172.84C1080.02 180.98 1097.7 185.05 1117.31 185.05H1142.1C1155.16 185.05 1166.12 189.28 1174.97 197.74C1183.81 206.2 1188.23 216.34 1188.23 228.15V242.04C1188.23 253.53 1183.81 263.51 1174.97 271.97C1166.12 280.43 1155.17 284.66 1142.1 284.66H1014.67V331.11H1142.1C1161.32 331.11 1178.81 327.04 1194.57 318.9C1210.33 310.76 1222.63 299.83 1231.47 286.1C1240.31 272.38 1244.73 257.69 1244.73 242.05V228.16C1244.73 212.2 1240.21 197.51 1231.18 184.11C1222.14 170.7 1209.84 160.01 1194.28 152.03V152.02Z" fill="#F2F2F2"/>
<path d="M1346.17 60.0799C1355.01 51.7799 1365.78 47.6299 1378.46 47.6299H1473.6V1.18994H1378.46C1359.23 1.18994 1341.85 5.18994 1326.28 13.1599C1310.71 21.1399 1298.4 31.9199 1289.38 45.4799C1280.34 59.0499 1275.83 73.8099 1275.83 89.7699V242.52C1275.83 258.49 1280.34 273.25 1289.38 286.81C1298.41 300.38 1310.71 311.16 1326.28 319.13C1341.85 327.11 1359.24 331.1 1378.46 331.1H1473.6V284.17H1378.46C1370 284.17 1362.31 282.34 1355.4 278.66C1348.48 274.99 1343 269.88 1338.97 263.34C1334.93 256.8 1332.92 249.86 1332.92 242.51V89.7699C1332.92 78.2799 1337.34 68.3899 1346.18 60.0799H1346.17Z" fill="#F2F2F2"/>
<path d="M352.62 227.41L432.12 62.94L335.38 117.63V8.47995H232.21L232.63 0.699951L212.9 8.47995H0.989902V307.26H0.899902L27.9399 334.4L28.0099 330.98V334.43H329.7V264.33L352.62 227.41ZM327.55 213.62L306.46 247.59L153.4 230.03L109.22 276.16L128.37 299.74H35.6799V109.06L199.87 44.33C197.87 53.82 195.76 57.7199 194.92 58.9899L173.47 66.63L280.81 161.41H315.99L366.64 132.78L327.56 213.62H327.55ZM300.69 132.84H291.62L221.16 70.62C224.85 63.43 226.92 55.02 228.29 47.97C228.61 46.35 228.89 44.75 229.15 43.18H300.69V132.85V132.84ZM124.9 43.1699L35.6799 78.34V43.1699H124.9ZM165.19 299.74L147.3 277.72L164.24 260.03L295.01 275.03V299.74H165.19Z" fill="#F2F2F2"/>
<path d="M173.55 142.85C173.55 155.61 184.2 165.96 197.33 165.96C202.68 165.96 207.6 164.22 211.57 161.32L177.28 130.44C174.92 134.03 173.54 138.28 173.54 142.85H173.55Z" fill="#F2F2F2"/>
<path d="M662.43 0.709961V245.93L586.9 137.18H554.6L479.65 245.81V0.709961H422.56V59.22L450.32 43.53L422.56 100.92V330.63H482.53L571.21 190.54L662.43 330.63H719.52V0.709961H662.43Z" fill="#F2F2F2"/>
</svg>
