<svg width="457" height="353" viewBox="0 0 457 353" fill="none" xmlns="http://www.w3.org/2000/svg">
<path d="M372.41 239.74L456.37 66.04L354.2 123.8V8.54004H245.25L245.69 0.330078L224.86 8.54004H1.06006V324.08H0.959961L29.52 352.74L29.6 349.13V352.77H348.21V278.74L372.41 239.75V239.74ZM345.94 225.18L323.67 261.06L162.03 242.51L115.37 291.23L135.6 316.13H37.7V114.75L211.1 46.3901C208.98 56.4101 206.76 60.5301 205.87 61.8701L183.21 69.9401L296.57 170.04H333.72L387.21 139.8L345.94 225.18ZM317.57 139.87H307.99L233.57 74.16C237.47 66.57 239.65 57.6801 241.1 50.2401C241.43 48.5301 241.74 46.8401 242.01 45.1801H317.57V139.87ZM131.93 45.17L37.7 82.3201V45.17H131.93ZM174.47 316.13L155.58 292.87L173.47 274.19L311.58 290.04V316.13H174.47Z" fill="#F2F2F2"/>
<path d="M183.3 150.44C183.3 163.92 194.54 174.85 208.42 174.85C214.07 174.85 219.27 173.01 223.46 169.95L187.25 137.33C184.76 141.12 183.3 145.61 183.3 150.43V150.44Z" fill="#F2F2F2"/>
</svg>
